<svg xmlns="http://www.w3.org/2000/svg" width="9.709" height="19.221" viewBox="0 0 9.709 19.221">
    <defs>
        <style>
            .cls-1{fill:#fff}
        </style>
    </defs>
    <path id="_005-facebook-2" d="M126.992 10.237h2.108v8.674a.31.31 0 0 0 .31.31h3.572a.31.31 0 0 0 .31-.31v-8.633h2.422a.31.31 0 0 0 .308-.275l.368-3.193a.31.31 0 0 0-.308-.345h-2.79v-2c0-.6.325-.909.966-.909h1.824a.31.31 0 0 0 .31-.31V.312a.31.31 0 0 0-.31-.31h-2.629a4.817 4.817 0 0 0-3.15 1.187 3.3 3.3 0 0 0-1.1 2.936v2.339h-2.212a.31.31 0 0 0-.31.31v3.153a.31.31 0 0 0 .311.31z" class="cls-1" data-name="005-facebook-2" transform="translate(-126.682)"/>
</svg>
