<svg xmlns="http://www.w3.org/2000/svg" width="29.977" height="29.977" viewBox="0 0 29.977 29.977">
  <g id="Group_996" data-name="Group 996" transform="translate(-13749.949 20708)">
    <g id="Group_993" data-name="Group 993" transform="translate(13749.949 -20708)">
      <circle id="Ellipse_7" data-name="Ellipse 7" cx="14.989" cy="14.989" r="14.989" transform="translate(0 0)" fill="#1976d2"/>
      <path id="_005-facebook-2" data-name="005-facebook-2" d="M126.947,8.762h1.8v7.424a.265.265,0,0,0,.265.265h3.058a.265.265,0,0,0,.265-.265V8.8h2.073a.265.265,0,0,0,.264-.235l.315-2.733a.265.265,0,0,0-.264-.3h-2.388V3.82c0-.516.278-.778.827-.778h1.561a.265.265,0,0,0,.265-.265V.267A.265.265,0,0,0,134.727,0h-2.152l-.1,0a4.123,4.123,0,0,0-2.7,1.016,2.827,2.827,0,0,0-.94,2.513v2h-1.893a.265.265,0,0,0-.265.265V8.5A.265.265,0,0,0,126.947,8.762Z" transform="translate(-115.841 6.58)" fill="#fff"/>
    </g>
  </g>
</svg>
