<?xml version="1.0" encoding="utf-8"?>
<!-- Generator: Adobe Illustrator 23.0.6, SVG Export Plug-In . SVG Version: 6.00 Build 0)  -->
<svg version="1.1" id="Layer_1" xmlns="http://www.w3.org/2000/svg" xmlns:xlink="http://www.w3.org/1999/xlink" x="0px" y="0px"
	 viewBox="0 0 384 384" style="enable-background:new 0 0 384 384;" xml:space="preserve">
<style type="text/css">
	.st0{fill:#2CB779;}
	.st1{fill:#FFFFFF;}
</style>
<title>so_logo_green_1</title>
<g>
	<path class="st0" d="M192,0C86.13,0,0,86.13,0,192c-0.06,48.65,18.42,95.49,51.67,131l2.87,3.08l-11.62,56.51l65.9-17.49l2.67,1.23
		c25.22,11.7,52.7,17.73,80.51,17.67c105.87,0,192-86.13,192-192S297.87,0,192,0z"/>
	<path class="st1" d="M149.23,183c-3.3-1.21-6.61-2.32-9.8-3.39l-3.37-1.14c-12.62-4.07-22.27-8.15-22.27-20.32
		c0-8.51,6.34-17.67,20.26-17.67c11.87,0,18.25,6.65,20.48,9.54c4.66,5.87,5.65,12.91,6.53,19.12l0.34,2.42h19.28v-45.87h-18.23
		l-0.25,8.88c-3.14-3.15-6.81-5.71-10.85-7.57c-5.93-2.61-12.36-3.92-18.84-3.84c-25.42,0-39.13,18.85-39.13,36.58
		c0,25.37,23.58,33.63,34.91,37.6l0.24,0.09c18.4,6.27,25,8.67,29.28,13.33c3.21,3.39,4.99,7.9,4.95,12.57
		c0,11.7-9,20.19-21.41,20.19c-9.48,0-18.39-4.29-23.3-11.26c-5.53-7.5-6.59-15.79-7.16-20.25l-0.31-2.45H91.46v48.73h18.76
		l0.4-9.69c4.24,4.16,9.37,7.3,15,9.19c5.43,1.83,11.11,2.79,16.84,2.84c20,0,41.44-11.9,41.44-38
		C183.94,195.66,160.5,187.1,149.23,183z"/>
	<path class="st1" d="M286.51,134.24c-8.71-7.24-20.3-11.07-33.5-11.07c-17.15,0-28.13,7.17-33.15,11.45l0,0
		c-17,14.53-20.59,40.34-20.59,59.44c0,8.88,0.66,22.24,6.37,35.57c8.51,20.4,25,31.19,47.56,31.19c14.74,0,26.65-4.38,35.4-13
		c7.93-7.73,13.21-18.07,16.15-31.55c1.91-8.46,2.84-17.12,2.76-25.79C307.51,164.6,300.44,145.67,286.51,134.24z M285.76,191
		c0,8.68-1.57,52-32.55,52c-22.19,0-28.85-22.15-30.68-31.67c-1.06-5.94-1.56-11.97-1.49-18C221,160.57,233.34,141,254,141
		C277.43,141,285.76,167.94,285.76,191z"/>
</g>
</svg>
