<svg xmlns="http://www.w3.org/2000/svg" width="30" height="30" viewBox="0 0 30 30">
    <defs>
        <style>
            .cls-1{fill:#e3e3e3}.cls-2{clip-path:url(#clip-path)}.cls-3{fill:#1bd741}.cls-4{fill:#fff}
        </style>
        <clipPath id="clip-path">
            <circle id="Ellipse_157" cx="15" cy="15" r="15" class="cls-1" data-name="Ellipse 157" transform="translate(13732 -20645)"/>
        </clipPath>
    </defs>
    <g id="Mask_Group_2" class="cls-2" data-name="Mask Group 2" transform="translate(-13732 20645)">
        <g id="whatsapp" transform="translate(13732 -20645)">
            <path id="Rectangle_469" d="M0 0h30v30H0z" class="cls-3" data-name="Rectangle 469"/>
            <g id="Group_995" data-name="Group 995" transform="translate(1.879 1.881)">
                <path id="Path_365" d="M4.509 21.741l1.206-4.284A8.6 8.6 0 1 1 8.927 20.6zm4.644-2.7l.263.161a7.14 7.14 0 1 0-2.3-2.247l.177.276L6.6 19.7z" class="cls-4" data-name="Path 365"/>
                <path id="Path_366" d="M11.649 10.092l-.558-.03a.675.675 0 0 0-.48.164 2.543 2.543 0 0 0-.836 1.281 3.884 3.884 0 0 0 .9 3.044 9.056 9.056 0 0 0 4.882 3.549 2.379 2.379 0 0 0 2.015-.249 1.8 1.8 0 0 0 .784-1.144l.089-.416a.289.289 0 0 0-.162-.323L16.4 15.1a.289.289 0 0 0-.35.086l-.74.96a.212.212 0 0 1-.238.071 5.8 5.8 0 0 1-3.138-2.685.214.214 0 0 1 .027-.239l.708-.819a.289.289 0 0 0 .047-.3l-.813-1.9a.289.289 0 0 0-.254-.182z" class="cls-4" data-name="Path 366" transform="translate(-.933 -.996)"/>
            </g>
        </g>
    </g>
</svg>
